<?xml version="1.0" encoding="utf-8"?>
<!-- Generator: Adobe Illustrator 16.0.0, SVG Export Plug-In . SVG Version: 6.00 Build 0)  -->
<!DOCTYPE svg PUBLIC "-//W3C//DTD SVG 1.1//EN" "http://www.w3.org/Graphics/SVG/1.1/DTD/svg11.dtd">
<svg version="1.1" id="Capa_1" xmlns="http://www.w3.org/2000/svg" xmlns:xlink="http://www.w3.org/1999/xlink" x="0px" y="0px"
	 width="548.667px" height="94.667px" viewBox="0 0 548.667 94.667" enable-background="new 0 0 548.667 94.667"
	 xml:space="preserve">
<polygon points="22.776,92.356 1.169,92.35 1.169,82.287 5.987,82.287 5.987,35.18 1.169,35.18 1.169,25.115 23.298,25.115 
	41.401,49.997 59.505,25.115 81.634,25.115 81.634,35.18 76.727,35.18 76.727,82.291 81.634,82.291 81.634,92.356 59.938,92.356 
	59.938,52.315 43.56,74.153 38.689,74.153 22.776,52.387 "/>
<g>
	<defs>
		<rect id="SVGID_1_" x="-23.333" y="-369.224" width="595.28" height="841.89"/>
	</defs>
	<clipPath id="SVGID_2_">
		<use xlink:href="#SVGID_1_"  overflow="visible"/>
	</clipPath>
	<path clip-path="url(#SVGID_2_)" fill="#C9002C" d="M164.204,1.488c-5.513,0-9.998,4.484-9.998,9.997
		c0,5.512,4.485,9.996,9.998,9.996c5.51,0,9.996-4.484,9.996-9.996C174.2,5.972,169.713,1.488,164.204,1.488 M164.203,17.664
		c-3.408,0-6.18-2.772-6.18-6.179c0-3.408,2.772-6.18,6.18-6.18c3.407,0,6.179,2.772,6.179,6.18
		C170.381,14.892,167.609,17.664,164.203,17.664"/>
	<path clip-path="url(#SVGID_2_)" d="M130.678,93.082c-18.905,0-34.286-15.382-34.286-34.286c0-18.905,15.381-34.285,34.286-34.285
		c18.905,0,34.286,15.38,34.286,34.285C164.964,77.7,149.583,93.082,130.678,93.082 M130.678,41.669
		c-9.443,0-17.124,7.683-17.124,17.126c0,9.442,7.681,17.126,17.124,17.126s17.126-7.684,17.126-17.126
		C147.804,49.352,140.121,41.669,130.678,41.669"/>
	<path clip-path="url(#SVGID_2_)" d="M246.557,92.262h-17.904L210.582,71.53h-7.544v20.732h-21.605V82.197h4.816V35.127h-4.816
		V25.06l1.067,0.002c0,0,30.698,0.09,35.796,0.09c17.091,0.104,24.873,12.047,24.873,23.101c0,10.065-4.944,17.569-13.636,20.827
		l11.635,13.116h5.389V92.262z M203.038,55.894h15.258c7.5,0,8.084-5.644,8.084-7.375c0-3.567-2.124-7.376-8.084-7.376h-15.258
		V55.894z"/>
	<polygon clip-path="url(#SVGID_2_)" points="402.007,92.262 353.327,92.262 353.327,35.216 348.511,35.216 348.511,25.152 
		370.119,25.152 370.119,76.356 402.007,76.356 	"/>
	<polygon clip-path="url(#SVGID_2_)" points="472.618,92.262 416.285,92.262 416.285,82.197 421.101,82.197 421.101,35.216 
		416.285,35.216 416.285,25.152 472.618,25.152 472.618,41.588 437.802,41.588 437.802,50.755 463.807,50.755 463.807,66.747 
		437.802,66.747 437.802,75.649 472.618,75.649 	"/>
	<path clip-path="url(#SVGID_2_)" d="M307.378,25.151h-24.861v10.065h4.289l-25.588,57.043h18.246l4.671-10.275l1.853-4.246
		c0.49-0.21,0.96-0.346,1.43-0.413c3.593-0.566,7.405,2.084,7.405,2.084c0.277,0.214,6.889,5.241,15.416,5.241
		c1.045,0,2.092-0.075,3.112-0.223c0.69-0.1,1.393-0.238,2.097-0.418l3.688,8.25h18.346L307.378,25.151z M304.405,70.265
		c-0.585-0.457-5.619-4.232-12.812-5.495l7.733-17.726l0.022,0.053l0.001-0.002l11.125,25.543
		C307.183,72.266,304.417,70.273,304.405,70.265"/>
	<path clip-path="url(#SVGID_2_)" d="M520.215,49.486c-10.168-1.209-11.571-3.244-11.571-5.264c0-3.564,3.85-5.692,10.298-5.692
		c5.709,0,10.849,2.884,12.519,5.676l1.231,2.047l0.019-0.01v0.01h10.245V33.301c-0.024-0.032-0.044-0.067-0.068-0.1h0.068v-4.667
		h-4.888c-4.901-3.48-11.475-5.287-19.502-5.287c-13.206,0.1-26.534,6.513-26.534,20.62c0,15.989,13.461,19.746,26.638,21.316
		c12.074,1.299,12.074,5.143,12.074,6.59c0,6.267-8.965,6.754-11.712,6.754c-7.371,0-13.015-3.08-15.092-8.236l-1.026-2.552v-0.037
		h-0.015l-0.006-0.011l-0.02,0.011h-11.771v18.533h4.239c5.35,5.259,13.127,7.84,23.513,7.84c17.636,0,28.59-8.545,28.59-22.302
		C547.444,55.139,534.36,51.23,520.215,49.486"/>
</g>
</svg>
